<svg xmlns="http://www.w3.org/2000/svg" viewBox="0 0 512.021 512.021" fill="#72B3AC">
  <path d="M507.184 248.202c.203-.247.379-.507.568-.76.227-.304.463-.601.674-.917.203-.303.379-.618.565-.93.171-.286.35-.565.508-.86.17-.318.314-.645.467-.969.145-.307.298-.609.428-.923.13-.315.235-.636.35-.956.121-.337.25-.67.355-1.015.097-.32.168-.645.249-.968.089-.351.187-.698.258-1.056.074-.375.118-.753.172-1.13.044-.311.104-.618.135-.933.138-1.4.138-2.811 0-4.211-.031-.315-.09-.621-.135-.932-.054-.378-.098-.756-.173-1.13-.071-.358-.169-.704-.258-1.055-.081-.324-.152-.649-.249-.969-.104-.344-.233-.677-.354-1.013-.115-.32-.22-.642-.35-.957-.13-.314-.283-.616-.428-.922-.153-.325-.297-.652-.467-.97-.157-.294-.337-.573-.507-.859-.186-.312-.362-.627-.565-.931-.211-.315-.446-.612-.673-.915-.19-.254-.367-.515-.57-.762a21.46 21.46 0 00-1.402-1.551l-.011-.012-64-64c-8.331-8.331-21.839-8.331-30.17 0-8.331 8.331-8.331 21.839 0 30.17l27.582 27.582H320.019c-11.782 0-21.333 9.551-21.333 21.333 0 11.782 9.551 21.333 21.333 21.333h119.163L411.6 283.596c-8.331 8.331-8.331 21.839 0 30.17 8.331 8.331 21.839 8.331 30.17 0l64-64 .011-.012c.494-.494.96-1.012 1.403-1.552z"/>
  <path d="M362.686 298.672c-11.782 0-21.333 9.551-21.333 21.333v106.667H256.02V85.339c0-9.421-6.18-17.727-15.203-20.434l-74.11-22.233h174.647v106.667c0 11.782 9.551 21.333 21.333 21.333s21.333-9.551 21.333-21.333v-128c0-11.782-9.551-21.333-21.333-21.333H21.347a21.215 21.215 0 00-1.876.083C9.685.827 3.306 7.264.988 14.949c-.149.478-.279.966-.395 1.46l-.034.161a21.654 21.654 0 00-.29 1.547l-.034.221c-.067.477-.12.96-.155 1.449a22.818 22.818 0 00-.061 2.368v425.859a21.333 21.333 0 0017.15 20.919L230.502 511.6c13.201 2.64 25.517-7.457 25.517-20.919v-21.342h106.667c11.782 0 21.333-9.551 21.333-21.333v-128c0-11.783-9.551-21.334-21.333-21.334zM213.353 464.658L42.686 430.525V50.02l170.667 51.2V464.658z"/>
</svg>