<svg width="358" height="104" viewBox="0 0 358 104" fill="none" xmlns="http://www.w3.org/2000/svg">
<path d="M137.952 56.7112C138.077 56.0862 138.16 55.5862 138.202 55.2112C138.244 54.7945 138.098 54.357 137.765 53.8987C137.931 53.232 138.056 52.7112 138.14 52.3362C138.265 51.9612 138.285 51.4404 138.202 50.7737C138.577 49.6904 139.14 48.7737 139.89 48.0237C140.681 47.2737 141.535 46.6487 142.452 46.1487C143.369 45.607 144.327 45.1695 145.327 44.8362C146.327 44.4612 147.265 44.1487 148.14 43.8987C148.14 43.732 148.056 43.6487 147.89 43.6487C147.723 43.6487 147.681 43.5445 147.765 43.3362C150.015 42.9195 152.265 42.3154 154.515 41.5237C156.806 40.732 159.14 40.0237 161.515 39.3987C163.89 38.7737 166.327 38.3987 168.827 38.2737C171.327 38.107 173.952 38.4195 176.702 39.2112C176.869 39.7112 177.098 40.1904 177.39 40.6487C177.681 41.107 177.973 41.5654 178.265 42.0237C178.598 42.4404 178.89 42.857 179.14 43.2737C179.39 43.6904 179.535 44.1279 179.577 44.5862C180.077 45.0445 180.473 45.5445 180.765 46.0862C181.098 46.5862 181.16 47.2737 180.952 48.1487C180.494 48.482 180.015 48.8154 179.515 49.1487C179.015 49.482 178.494 49.7945 177.952 50.0862C176.077 49.6279 174.202 49.4612 172.327 49.5862C170.452 49.7112 168.765 49.857 167.265 50.0237C166.806 49.5237 166.265 49.2945 165.64 49.3362C165.015 49.3362 164.348 49.4404 163.64 49.6487C162.973 49.8154 162.306 50.0029 161.64 50.2112C160.973 50.3779 160.348 50.4195 159.765 50.3362C159.306 50.7529 158.702 51.0445 157.952 51.2112C157.202 51.3362 156.41 51.4404 155.577 51.5237C155.535 51.732 155.577 51.8779 155.702 51.9612C155.827 52.0445 155.848 52.2112 155.765 52.4612C156.056 52.8362 156.452 53.107 156.952 53.2737C157.452 53.3987 157.952 53.5237 158.452 53.6487C158.994 53.7737 159.473 53.9612 159.89 54.2112C160.306 54.4195 160.577 54.7737 160.702 55.2737C161.452 55.3154 162.098 55.5237 162.64 55.8987C163.181 56.232 163.64 56.6487 164.015 57.1487C164.39 57.6487 164.66 58.1904 164.827 58.7737C164.994 59.3154 165.056 59.8154 165.015 60.2737C165.181 60.6904 165.348 60.857 165.515 60.7737C165.723 60.6904 165.952 60.7945 166.202 61.0862C166.369 61.7112 166.744 62.3779 167.327 63.0862C167.952 63.7529 168.431 64.482 168.765 65.2737C168.848 66.5237 168.91 67.6487 168.952 68.6487C169.035 69.6487 168.869 70.6279 168.452 71.5862C167.744 73.4195 166.723 75.0654 165.39 76.5237C164.056 77.982 162.535 79.2737 160.827 80.3987C159.16 81.482 157.39 82.4404 155.515 83.2737C153.64 84.0654 151.785 84.732 149.952 85.2737C149.785 85.232 149.577 85.232 149.327 85.2737C149.119 85.3154 149.077 85.1904 149.202 84.8987C148.827 85.232 148.39 85.4404 147.89 85.5237C147.431 85.607 146.91 85.6279 146.327 85.5862C145.785 85.5862 145.223 85.5654 144.64 85.5237C144.098 85.482 143.556 85.5029 143.015 85.5862C142.681 85.2529 142.369 84.9195 142.077 84.5862C141.827 84.2529 141.619 83.857 141.452 83.3987C141.244 83.357 141.14 83.232 141.14 83.0237C141.181 82.7737 141.098 82.6487 140.89 82.6487C140.89 82.482 140.91 82.357 140.952 82.2737C140.994 82.1904 141.035 82.107 141.077 82.0237C141.244 81.8987 141.306 81.8154 141.265 81.7737C141.265 81.6904 141.202 81.6279 141.077 81.5862C140.994 81.5029 140.89 81.4195 140.765 81.3362C140.681 81.2529 140.66 81.1487 140.702 81.0237C140.91 80.6487 140.973 80.2112 140.89 79.7112C140.848 79.1695 140.806 78.6279 140.765 78.0862C140.723 77.5445 140.765 77.0445 140.89 76.5862C141.015 76.0862 141.369 75.6695 141.952 75.3362C143.66 75.5029 145.265 75.4195 146.765 75.0862C148.306 74.7529 149.744 74.2945 151.077 73.7112C152.452 73.1279 153.744 72.5029 154.952 71.8362C156.202 71.1279 157.41 70.482 158.577 69.8987C158.702 69.482 158.89 69.1279 159.14 68.8362C159.431 68.5445 159.723 68.2737 160.015 68.0237C160.306 67.732 160.577 67.4404 160.827 67.1487C161.077 66.8154 161.265 66.4195 161.39 65.9612C161.431 65.7945 161.431 65.6695 161.39 65.5862C161.348 65.5029 161.285 65.4404 161.202 65.3987C161.119 65.3154 161.035 65.232 160.952 65.1487C160.869 65.0654 160.827 64.9404 160.827 64.7737C160.702 64.732 160.577 64.6904 160.452 64.6487C160.369 64.607 160.285 64.5862 160.202 64.5862C159.119 64.0445 157.973 63.5862 156.765 63.2112C155.556 62.8362 154.535 62.4195 153.702 61.9612C153.202 62.2945 152.702 62.3779 152.202 62.2112C151.702 62.0445 151.098 61.8779 150.39 61.7112C148.64 61.6279 146.973 61.4612 145.39 61.2112C143.848 60.9612 142.348 60.5237 140.89 59.8987C140.806 59.6487 140.702 59.4404 140.577 59.2737C140.452 59.0654 140.16 59.0029 139.702 59.0862C139.41 58.6695 139.098 58.2945 138.765 57.9612C138.473 57.5862 138.202 57.1695 137.952 56.7112Z" fill="#211919"/>
<path d="M206.015 78.8362C206.098 79.9195 205.973 80.8154 205.64 81.5237C205.306 82.232 204.848 82.8362 204.265 83.3362C203.681 83.8362 203.015 84.232 202.265 84.5237C201.515 84.8154 200.785 85.0862 200.077 85.3362C199.744 85.1279 199.41 84.9195 199.077 84.7112C198.785 84.4612 198.431 84.2737 198.015 84.1487C197.473 83.1487 196.952 82.2737 196.452 81.5237C195.952 80.732 195.723 79.8362 195.765 78.8362C195.765 78.7945 195.785 78.5654 195.827 78.1487C195.91 77.732 195.994 77.2737 196.077 76.7737C196.202 76.2737 196.285 75.8154 196.327 75.3987C196.41 74.9404 196.452 74.6904 196.452 74.6487C195.494 74.732 194.494 74.9404 193.452 75.2737C192.41 75.607 191.39 76.0029 190.39 76.4612C189.431 76.9195 188.515 77.3779 187.64 77.8362C186.806 78.2945 186.119 78.6904 185.577 79.0237C185.577 79.1487 185.494 79.4612 185.327 79.9612C185.16 80.4195 184.952 80.9195 184.702 81.4612C184.452 81.9612 184.181 82.4195 183.89 82.8362C183.598 83.2529 183.306 83.4612 183.015 83.4612C183.056 83.5862 183.119 83.7112 183.202 83.8362C183.285 83.9612 183.285 84.1279 183.202 84.3362C182.619 84.5029 182.098 84.7112 181.64 84.9612C181.181 85.2529 180.702 85.482 180.202 85.6487C179.702 85.857 179.16 85.9612 178.577 85.9612C177.994 85.9612 177.306 85.7529 176.515 85.3362C176.515 85.0862 176.41 84.8779 176.202 84.7112C175.994 84.5029 175.765 84.3362 175.515 84.2112C175.306 84.0445 175.119 83.9195 174.952 83.8362C174.785 83.7112 174.702 83.607 174.702 83.5237C174.494 83.5654 174.41 83.4195 174.452 83.0862C174.494 82.7529 174.66 82.6695 174.952 82.8362C174.494 82.2529 174.202 81.7529 174.077 81.3362C173.994 80.8779 173.765 80.3154 173.39 79.6487C173.473 79.5654 173.556 79.4195 173.64 79.2112C173.681 79.0029 173.723 78.8154 173.765 78.6487C173.806 78.482 173.869 78.357 173.952 78.2737C174.035 78.1904 174.14 78.2112 174.265 78.3362C174.181 77.9612 174.181 77.6487 174.265 77.3987C174.348 77.1487 174.431 76.9195 174.515 76.7112C174.598 76.5029 174.66 76.2945 174.702 76.0862C174.744 75.8779 174.681 75.6487 174.515 75.3987C175.181 74.482 175.619 73.5029 175.827 72.4612C176.035 71.3779 176.16 70.3987 176.202 69.5237C176.494 69.232 176.744 68.8154 176.952 68.2737C177.202 67.732 177.39 67.1904 177.515 66.6487C177.64 66.0654 177.681 65.5237 177.64 65.0237C177.64 64.482 177.577 64.0445 177.452 63.7112C177.494 63.5029 177.723 63.4404 178.14 63.5237C178.39 62.1487 178.556 60.607 178.64 58.8987C178.765 57.1487 178.952 55.5029 179.202 53.9612C179.452 52.3779 179.869 51.0029 180.452 49.8362C181.035 48.6279 181.973 47.8362 183.265 47.4612C183.515 48.3362 183.827 49.107 184.202 49.7737C184.619 50.4404 185.056 51.0862 185.515 51.7112C186.015 52.2945 186.494 52.8987 186.952 53.5237C187.452 54.1487 187.91 54.857 188.327 55.6487C188.285 56.4404 188.202 57.357 188.077 58.3987C187.952 59.4404 187.785 60.5029 187.577 61.5862C187.41 62.6695 187.223 63.7112 187.015 64.7112C186.848 65.7112 186.681 66.5654 186.515 67.2737C186.556 67.482 186.66 67.607 186.827 67.6487C187.035 67.6904 187.077 67.8779 186.952 68.2112C187.952 67.9612 188.994 67.732 190.077 67.5237C191.16 67.3154 192.244 67.0862 193.327 66.8362C194.41 66.5862 195.452 66.3154 196.452 66.0237C197.494 65.6904 198.452 65.2945 199.327 64.8362C199.535 63.2112 199.806 61.5862 200.14 59.9612C200.473 58.3362 200.515 56.6695 200.265 54.9612C200.473 54.7945 200.64 54.5862 200.765 54.3362C200.89 54.0862 201.098 53.9195 201.39 53.8362C201.181 53.0445 201.098 52.2112 201.14 51.3362C201.181 50.4612 201.327 49.6279 201.577 48.8362C201.869 48.0445 202.265 47.3779 202.765 46.8362C203.306 46.2529 203.952 45.8779 204.702 45.7112C205.16 46.3779 205.556 47.107 205.89 47.8987C206.223 48.6487 206.556 49.4195 206.89 50.2112C207.265 50.9612 207.64 51.6904 208.015 52.3987C208.431 53.0654 208.952 53.6487 209.577 54.1487C209.702 55.357 209.785 56.607 209.827 57.8987C209.91 59.1904 209.973 60.5029 210.015 61.8362C209.681 63.4195 209.306 64.9612 208.89 66.4612C208.515 67.9195 208.244 69.482 208.077 71.1487C207.785 71.482 207.556 71.857 207.39 72.2737C207.223 72.6904 207.056 73.1279 206.89 73.5862C206.723 74.0029 206.535 74.4195 206.327 74.8362C206.119 75.2112 205.869 75.5445 205.577 75.8362C205.744 76.3362 205.765 76.8154 205.64 77.2737C205.556 77.6904 205.681 78.2112 206.015 78.8362Z" fill="#211919"/>
<path d="M244.327 79.6487C244.077 80.357 243.702 81.0862 243.202 81.8362C242.744 82.5445 242.181 83.1904 241.515 83.7737C240.89 84.3154 240.181 84.7737 239.39 85.1487C238.598 85.5237 237.765 85.732 236.89 85.7737C236.348 85.6487 235.973 85.5029 235.765 85.3362C235.598 85.2112 235.41 85.0862 235.202 84.9612C235.077 84.8779 234.952 84.8154 234.827 84.7737C234.744 84.6904 234.66 84.6279 234.577 84.5862L233.827 84.2737L234.077 83.4612C234.16 83.1279 234.14 82.8779 234.015 82.7112C233.89 82.5029 233.64 82.232 233.265 81.8987C233.14 81.7737 233.015 81.6487 232.89 81.5237C232.765 81.3987 232.66 81.2737 232.577 81.1487L231.515 79.9612L233.202 79.5237C234.244 79.232 234.931 78.857 235.265 78.3987C235.64 77.9404 235.785 77.1695 235.702 76.0862C234.869 75.9195 234.16 75.8987 233.577 76.0237C233.035 76.1487 232.473 76.2945 231.89 76.4612C231.14 76.6695 230.369 76.857 229.577 77.0237C228.827 77.1487 227.994 77.2112 227.077 77.2112C226.744 77.2112 226.431 77.2112 226.14 77.2112C225.848 77.1695 225.535 77.1279 225.202 77.0862L224.577 76.9612C224.494 76.5029 224.41 76.2529 224.327 76.2112C224.244 76.1279 224.16 76.0445 224.077 75.9612C223.869 75.7529 223.64 75.482 223.39 75.1487C223.181 74.7737 223.14 74.3154 223.265 73.7737C223.056 73.3987 222.931 73.0237 222.89 72.6487C222.64 73.1487 222.452 73.6695 222.327 74.2112L222.077 74.8362L221.452 74.9612C221.369 75.0029 221.306 75.107 221.265 75.2737C221.223 75.3987 221.202 75.5029 221.202 75.5862L220.89 76.6487C220.806 76.732 220.723 76.8154 220.64 76.8987C220.556 76.9404 220.473 77.0029 220.39 77.0862C220.306 77.4612 220.202 77.8362 220.077 78.2112C219.952 78.5862 219.827 78.9404 219.702 79.2737C219.494 79.8154 219.306 80.357 219.14 80.8987C219.015 81.3987 218.973 81.8987 219.015 82.3987L218.765 83.0862C218.556 83.3362 218.327 83.5445 218.077 83.7112C217.827 83.8362 217.577 83.9612 217.327 84.0862C217.244 84.1695 217.119 84.2529 216.952 84.3362C216.827 84.3779 216.723 84.4195 216.64 84.4612L216.452 85.1487L215.702 85.2737C215.244 85.357 214.91 85.4195 214.702 85.4612C214.535 85.5029 214.327 85.5237 214.077 85.5237L213.452 85.4612C212.994 85.0862 212.64 84.7945 212.39 84.5862C212.14 84.3362 211.848 84.107 211.515 83.8987C211.14 83.3987 210.931 83.0237 210.89 82.7737C210.848 82.5237 210.806 82.2945 210.765 82.0862C210.681 81.8362 210.64 81.6279 210.64 81.4612C210.598 81.2945 210.535 81.1695 210.452 81.0862L209.64 80.3362L210.327 79.7737L210.39 78.7112C211.223 76.5862 212.098 74.5445 213.015 72.5862C213.973 70.6279 214.952 68.6279 215.952 66.5862C216.285 65.9195 216.598 65.2529 216.89 64.5862C217.223 63.9195 217.556 63.2529 217.89 62.5862C217.848 62.4612 217.827 62.3154 217.827 62.1487C217.827 61.982 217.869 61.7945 217.952 61.5862C218.41 60.8779 218.785 60.2529 219.077 59.7112C219.369 59.1279 219.66 58.5445 219.952 57.9612C220.285 57.2529 220.619 56.5654 220.952 55.8987C221.327 55.232 221.785 54.5445 222.327 53.8362L223.327 53.3987C223.452 53.357 223.598 53.3154 223.765 53.2737C223.931 53.1904 224.119 53.1487 224.327 53.1487L225.265 53.2737C226.431 52.732 227.452 51.982 228.327 51.0237C229.202 50.0237 230.098 48.8362 231.015 47.4612L231.64 46.5862L232.452 47.0862C232.66 47.2112 232.952 47.3362 233.327 47.4612C233.702 47.5445 234.098 47.6487 234.515 47.7737C235.265 47.9404 235.973 48.1279 236.64 48.3362C237.306 48.5445 237.848 48.857 238.265 49.2737C238.515 49.9404 238.66 50.4404 238.702 50.7737C238.744 51.107 238.806 51.4404 238.89 51.7737C239.015 52.482 239.119 53.1904 239.202 53.8987C239.327 54.607 239.41 55.3987 239.452 56.2737C239.66 56.982 239.827 57.6904 239.952 58.3987C240.119 59.0654 240.265 59.7529 240.39 60.4612C240.598 61.4612 240.806 62.4404 241.015 63.3987C241.223 64.3154 241.494 65.1904 241.827 66.0237C242.16 66.0237 242.369 66.0445 242.452 66.0862C242.66 66.0029 242.869 65.9404 243.077 65.8987C243.327 65.857 243.598 65.8154 243.89 65.7737L244.577 65.7112L244.827 66.3362C244.869 66.5445 245.077 66.7529 245.452 66.9612C245.994 67.0029 246.39 67.1279 246.64 67.3362C246.89 67.5029 247.119 67.6904 247.327 67.8987C247.494 68.0654 247.66 68.1904 247.827 68.2737L248.765 68.6487L248.265 69.5862C247.848 70.3362 247.244 71.0654 246.452 71.7737C245.702 72.4404 244.848 73.0029 243.89 73.4612C243.931 73.7112 243.952 73.9612 243.952 74.2112C243.994 74.4195 244.056 74.6487 244.14 74.8987C244.265 75.607 244.369 76.3362 244.452 77.0862C244.535 77.8362 244.535 78.607 244.452 79.3987L244.327 79.6487ZM226.265 68.8362C227.515 68.7529 228.64 68.6695 229.64 68.5862C230.681 68.4612 231.827 68.2737 233.077 68.0237C232.785 66.7737 232.473 65.482 232.14 64.1487C231.806 62.7737 231.452 61.4195 231.077 60.0862L230.702 60.7112C229.869 61.5862 229.056 62.5654 228.265 63.6487C227.515 64.732 226.869 65.7529 226.327 66.7112C226.077 67.0862 225.827 67.4612 225.577 67.8362C225.327 68.2112 225.098 68.5862 224.89 68.9612C225.14 68.9195 225.369 68.8987 225.577 68.8987C225.827 68.8987 226.056 68.8779 226.265 68.8362Z" fill="#211919"/>
<path d="M254.265 79.4612C253.056 78.5445 252.056 77.3987 251.265 76.0237C250.515 74.6487 249.91 73.1904 249.452 71.6487C249.035 70.107 248.744 68.5237 248.577 66.8987C248.452 65.232 248.41 63.6487 248.452 62.1487C248.827 61.0237 249.285 60.0029 249.827 59.0862C250.369 58.1279 250.973 57.232 251.64 56.3987C252.306 55.5237 252.994 54.7112 253.702 53.9612C254.452 53.1695 255.181 52.3779 255.89 51.5862C256.14 51.5862 256.369 51.6487 256.577 51.7737C256.744 51.3154 256.994 50.9195 257.327 50.5862C257.66 50.2529 258.015 49.9612 258.39 49.7112C258.765 49.4195 259.14 49.1487 259.515 48.8987C259.89 48.607 260.202 48.2737 260.452 47.8987C261.494 47.6487 262.41 47.2945 263.202 46.8362C264.035 46.3779 264.827 45.8779 265.577 45.3362C266.327 44.7945 267.098 44.2945 267.89 43.8362C268.681 43.3779 269.598 43.0237 270.64 42.7737C271.015 42.357 271.473 42.0029 272.015 41.7112C272.598 41.4195 273.16 41.1487 273.702 40.8987C274.285 40.6487 274.827 40.3779 275.327 40.0862C275.869 39.7945 276.306 39.3987 276.64 38.8987C276.89 39.232 277.244 39.357 277.702 39.2737C278.16 39.1487 278.577 39.0237 278.952 38.8987C279.202 38.857 279.41 38.8987 279.577 39.0237C279.744 39.1487 279.89 39.2945 280.015 39.4612C280.181 39.5862 280.306 39.6695 280.39 39.7112C280.515 39.7529 280.64 39.6279 280.765 39.3362C281.098 39.3779 281.181 39.5237 281.015 39.7737C280.89 40.0237 280.806 40.1904 280.765 40.2737C281.181 40.1904 281.515 40.2737 281.765 40.5237C282.056 40.732 282.494 40.8779 283.077 40.9612C283.285 41.1695 283.348 41.3362 283.265 41.4612C283.181 41.5862 283.119 41.7945 283.077 42.0862C284.577 42.5445 285.535 43.2737 285.952 44.2737C286.369 45.232 286.41 46.2529 286.077 47.3362C285.744 48.3779 285.119 49.357 284.202 50.2737C283.327 51.1487 282.348 51.732 281.265 52.0237C279.973 52.357 278.765 52.6904 277.64 53.0237C276.556 53.357 275.494 53.732 274.452 54.1487C273.452 54.5654 272.494 55.0654 271.577 55.6487C270.702 56.1904 269.931 56.8362 269.265 57.5862C268.098 57.9195 267.035 58.3779 266.077 58.9612C265.16 59.5445 264.285 60.1904 263.452 60.8987C262.66 61.607 261.89 62.357 261.14 63.1487C260.39 63.8987 259.64 64.6487 258.89 65.3987C258.89 66.107 258.765 66.6487 258.515 67.0237C258.265 67.3987 257.994 67.7737 257.702 68.1487C257.785 68.9404 257.952 69.6279 258.202 70.2112C258.494 70.7529 258.785 71.3154 259.077 71.8987C262.41 72.8987 265.931 73.5237 269.64 73.7737C273.39 73.982 277.098 74.107 280.765 74.1487C281.14 74.6487 281.556 75.1279 282.015 75.5862C282.515 76.0029 282.952 76.4404 283.327 76.8987C283.744 77.357 284.056 77.8987 284.265 78.5237C284.515 79.107 284.577 79.8154 284.452 80.6487C283.744 81.357 282.973 82.0445 282.14 82.7112C281.306 83.3362 280.473 83.9612 279.64 84.5862C279.265 84.6279 278.806 84.6279 278.265 84.5862C277.765 84.5445 277.223 84.5237 276.64 84.5237C276.098 84.5237 275.535 84.5654 274.952 84.6487C274.41 84.6904 273.89 84.8154 273.39 85.0237C270.765 84.9404 268.077 84.6279 265.327 84.0862C262.577 83.5029 260.035 82.8154 257.702 82.0237C257.244 81.482 256.765 80.982 256.265 80.5237C255.765 80.0237 255.098 79.6695 254.265 79.4612Z" fill="#211919"/>
<path d="M320.64 79.6487C320.39 80.357 320.015 81.0862 319.515 81.8362C319.056 82.5445 318.494 83.1904 317.827 83.7737C317.202 84.3154 316.494 84.7737 315.702 85.1487C314.91 85.5237 314.077 85.732 313.202 85.7737C312.66 85.6487 312.285 85.5029 312.077 85.3362C311.91 85.2112 311.723 85.0862 311.515 84.9612C311.39 84.8779 311.265 84.8154 311.14 84.7737C311.056 84.6904 310.973 84.6279 310.89 84.5862L310.14 84.2737L310.39 83.4612C310.473 83.1279 310.452 82.8779 310.327 82.7112C310.202 82.5029 309.952 82.232 309.577 81.8987C309.452 81.7737 309.327 81.6487 309.202 81.5237C309.077 81.3987 308.973 81.2737 308.89 81.1487L307.827 79.9612L309.515 79.5237C310.556 79.232 311.244 78.857 311.577 78.3987C311.952 77.9404 312.098 77.1695 312.015 76.0862C311.181 75.9195 310.473 75.8987 309.89 76.0237C309.348 76.1487 308.785 76.2945 308.202 76.4612C307.452 76.6695 306.681 76.857 305.89 77.0237C305.14 77.1487 304.306 77.2112 303.39 77.2112C303.056 77.2112 302.744 77.2112 302.452 77.2112C302.16 77.1695 301.848 77.1279 301.515 77.0862L300.89 76.9612C300.806 76.5029 300.723 76.2529 300.64 76.2112C300.556 76.1279 300.473 76.0445 300.39 75.9612C300.181 75.7529 299.952 75.482 299.702 75.1487C299.494 74.7737 299.452 74.3154 299.577 73.7737C299.369 73.3987 299.244 73.0237 299.202 72.6487C298.952 73.1487 298.765 73.6695 298.64 74.2112L298.39 74.8362L297.765 74.9612C297.681 75.0029 297.619 75.107 297.577 75.2737C297.535 75.3987 297.515 75.5029 297.515 75.5862L297.202 76.6487C297.119 76.732 297.035 76.8154 296.952 76.8987C296.869 76.9404 296.785 77.0029 296.702 77.0862C296.619 77.4612 296.515 77.8362 296.39 78.2112C296.265 78.5862 296.14 78.9404 296.015 79.2737C295.806 79.8154 295.619 80.357 295.452 80.8987C295.327 81.3987 295.285 81.8987 295.327 82.3987L295.077 83.0862C294.869 83.3362 294.64 83.5445 294.39 83.7112C294.14 83.8362 293.89 83.9612 293.64 84.0862C293.556 84.1695 293.431 84.2529 293.265 84.3362C293.14 84.3779 293.035 84.4195 292.952 84.4612L292.765 85.1487L292.015 85.2737C291.556 85.357 291.223 85.4195 291.015 85.4612C290.848 85.5029 290.64 85.5237 290.39 85.5237L289.765 85.4612C289.306 85.0862 288.952 84.7945 288.702 84.5862C288.452 84.3362 288.16 84.107 287.827 83.8987C287.452 83.3987 287.244 83.0237 287.202 82.7737C287.16 82.5237 287.119 82.2945 287.077 82.0862C286.994 81.8362 286.952 81.6279 286.952 81.4612C286.91 81.2945 286.848 81.1695 286.765 81.0862L285.952 80.3362L286.64 79.7737L286.702 78.7112C287.535 76.5862 288.41 74.5445 289.327 72.5862C290.285 70.6279 291.265 68.6279 292.265 66.5862C292.598 65.9195 292.91 65.2529 293.202 64.5862C293.535 63.9195 293.869 63.2529 294.202 62.5862C294.16 62.4612 294.14 62.3154 294.14 62.1487C294.14 61.982 294.181 61.7945 294.265 61.5862C294.723 60.8779 295.098 60.2529 295.39 59.7112C295.681 59.1279 295.973 58.5445 296.265 57.9612C296.598 57.2529 296.931 56.5654 297.265 55.8987C297.64 55.232 298.098 54.5445 298.64 53.8362L299.64 53.3987C299.765 53.357 299.91 53.3154 300.077 53.2737C300.244 53.1904 300.431 53.1487 300.64 53.1487L301.577 53.2737C302.744 52.732 303.765 51.982 304.64 51.0237C305.515 50.0237 306.41 48.8362 307.327 47.4612L307.952 46.5862L308.765 47.0862C308.973 47.2112 309.265 47.3362 309.64 47.4612C310.015 47.5445 310.41 47.6487 310.827 47.7737C311.577 47.9404 312.285 48.1279 312.952 48.3362C313.619 48.5445 314.16 48.857 314.577 49.2737C314.827 49.9404 314.973 50.4404 315.015 50.7737C315.056 51.107 315.119 51.4404 315.202 51.7737C315.327 52.482 315.431 53.1904 315.515 53.8987C315.64 54.607 315.723 55.3987 315.765 56.2737C315.973 56.982 316.14 57.6904 316.265 58.3987C316.431 59.0654 316.577 59.7529 316.702 60.4612C316.91 61.4612 317.119 62.4404 317.327 63.3987C317.535 64.3154 317.806 65.1904 318.14 66.0237C318.473 66.0237 318.681 66.0445 318.765 66.0862C318.973 66.0029 319.181 65.9404 319.39 65.8987C319.64 65.857 319.91 65.8154 320.202 65.7737L320.89 65.7112L321.14 66.3362C321.181 66.5445 321.39 66.7529 321.765 66.9612C322.306 67.0029 322.702 67.1279 322.952 67.3362C323.202 67.5029 323.431 67.6904 323.64 67.8987C323.806 68.0654 323.973 68.1904 324.14 68.2737L325.077 68.6487L324.577 69.5862C324.16 70.3362 323.556 71.0654 322.765 71.7737C322.015 72.4404 321.16 73.0029 320.202 73.4612C320.244 73.7112 320.265 73.9612 320.265 74.2112C320.306 74.4195 320.369 74.6487 320.452 74.8987C320.577 75.607 320.681 76.3362 320.765 77.0862C320.848 77.8362 320.848 78.607 320.765 79.3987L320.64 79.6487ZM302.577 68.8362C303.827 68.7529 304.952 68.6695 305.952 68.5862C306.994 68.4612 308.14 68.2737 309.39 68.0237C309.098 66.7737 308.785 65.482 308.452 64.1487C308.119 62.7737 307.765 61.4195 307.39 60.0862L307.015 60.7112C306.181 61.5862 305.369 62.5654 304.577 63.6487C303.827 64.732 303.181 65.7529 302.64 66.7112C302.39 67.0862 302.14 67.4612 301.89 67.8362C301.64 68.2112 301.41 68.5862 301.202 68.9612C301.452 68.9195 301.681 68.8987 301.89 68.8987C302.14 68.8987 302.369 68.8779 302.577 68.8362Z" fill="#211919"/>
<path d="M341.265 84.2112C340.098 84.5862 338.827 84.9612 337.452 85.3362C336.077 85.7112 334.702 85.8987 333.327 85.8987C331.244 85.8987 329.598 85.3779 328.39 84.3362C328.181 83.8779 327.994 83.5654 327.827 83.3987C327.702 83.232 327.577 83.0654 327.452 82.8987C327.369 82.6904 327.306 82.4195 327.265 82.0862C326.765 81.5029 326.369 80.8362 326.077 80.0862C325.785 79.2945 325.577 78.5029 325.452 77.7112C325.369 76.8779 325.348 76.0445 325.39 75.2112C325.473 74.3779 325.619 73.5862 325.827 72.8362C325.91 72.6695 325.952 72.5029 325.952 72.3362C325.994 72.1695 326.035 71.982 326.077 71.7737C326.244 71.107 326.41 70.4612 326.577 69.8362C326.785 69.2112 327.056 68.6695 327.39 68.2112C327.223 67.8362 327.223 67.4195 327.39 66.9612C327.556 66.5029 327.744 66.0862 327.952 65.7112C328.535 64.1279 329.015 62.7945 329.39 61.7112C329.806 60.5862 330.223 59.482 330.64 58.3987C331.348 56.5237 332.015 54.6695 332.64 52.8362C333.265 51.0029 333.827 49.0237 334.327 46.8987C334.66 46.6904 334.91 46.5445 335.077 46.4612C335.327 46.3779 335.535 46.3154 335.702 46.2737C336.452 46.6487 337.327 47.0237 338.327 47.3987C339.327 47.732 340.16 47.8987 340.827 47.8987C341.16 48.107 341.369 48.2737 341.452 48.3987C341.535 48.482 341.619 48.5654 341.702 48.6487C342.16 49.1904 342.556 49.7529 342.89 50.3362C343.223 50.8779 343.327 51.607 343.202 52.5237C342.952 52.8987 342.765 53.0862 342.64 53.0862C342.431 53.9195 342.202 54.6279 341.952 55.2112C341.744 55.7945 341.515 56.3779 341.265 56.9612C340.973 57.5862 340.702 58.2112 340.452 58.8362C340.202 59.4612 339.994 60.232 339.827 61.1487C339.66 61.357 339.535 61.5445 339.452 61.7112C339.41 61.8779 339.348 62.0654 339.265 62.2737C339.181 62.482 339.077 62.7112 338.952 62.9612C338.869 63.1695 338.723 63.357 338.515 63.5237C338.39 64.607 338.181 65.482 337.89 66.1487C337.64 66.8154 337.369 67.482 337.077 68.1487C336.577 69.357 336.119 70.5654 335.702 71.7737C335.327 72.982 335.098 74.357 335.015 75.8987C335.223 75.8154 335.41 75.7737 335.577 75.7737C335.785 75.7737 335.973 75.7737 336.14 75.7737C336.515 75.7737 336.952 75.8362 337.452 75.9612C338.702 75.2945 340.056 74.8987 341.515 74.7737C343.015 74.6487 344.494 74.5654 345.952 74.5237C346.535 74.5237 347.119 74.5237 347.702 74.5237C348.285 74.5237 348.827 74.482 349.327 74.3987C349.702 74.607 349.931 74.732 350.015 74.7737C350.14 74.7737 350.306 74.7737 350.515 74.7737C350.806 74.7737 351.056 74.7945 351.265 74.8362C351.765 75.2945 352.244 75.6279 352.702 75.8362C353.16 76.0445 353.64 76.232 354.14 76.3987C354.598 76.5654 355.035 76.7529 355.452 76.9612C355.91 77.1279 356.348 77.3779 356.765 77.7112L357.202 80.3987C357.494 80.7737 357.619 81.0237 357.577 81.1487C357.577 81.482 357.494 81.732 357.327 81.8987L357.452 82.5862C356.827 82.7112 356.39 82.857 356.14 83.0237C355.931 83.1904 355.723 83.3779 355.515 83.5862C355.181 83.6279 354.931 83.6487 354.765 83.6487C354.64 83.6487 354.515 83.6487 354.39 83.6487C353.806 83.6487 353.098 83.7529 352.265 83.9612C351.14 83.5862 349.973 83.3987 348.765 83.3987C348.306 83.3987 347.827 83.4195 347.327 83.4612C346.827 83.5029 346.327 83.5445 345.827 83.5862C345.327 83.6695 344.806 83.732 344.265 83.7737C343.765 83.8154 343.244 83.8362 342.702 83.8362L341.265 84.2112Z" fill="#211919"/>
<path d="M91.1396 32.8398C84.9115 34.3663 74.473 38.0065 70.1396 40.3398C77.1396 47.5064 92.8396 62.2398 99.6396 63.8398C108.14 65.8398 114.64 59.3398 118.14 55.8398C121.64 52.3398 129.64 40.3986 125.14 34.3986C120.64 28.3986 103.14 29.8986 91.1396 32.8398Z" fill="#42696E"/>
<path d="M29.1396 15.8987C26.8798 24.1844 26.2966 34.1667 27.9632 39L58.6392 36.3987C58.6392 35.3987 60.4232 30.607 58.6392 22.3987C56.1396 10.8987 48.1392 0 41.9636 0C39.1392 0 32.1397 4.89867 29.1396 15.8987Z" fill="#42696E"/>
<path d="M66.964 36.5C30.4642 25 12.9642 52 12.9642 52C12.9642 52 0.963726 56 0.463773 62.5C-0.113091 70 11.1396 74.3986 14.6396 75.3986L14.6393 79.5H3.96396C2.96396 81 1.56396 85.6 3.96396 92C6.96396 100 19.6396 103.399 33.6396 101.399C47.6396 99.3986 48.1396 90.8986 72.6396 89.3986C90.8877 88.2814 103.297 79 106.964 74.5C101.964 61.5 91.2162 44.1412 66.964 36.5Z" fill="#42696E"/>
<path d="M30.9636 53C27.7636 54.6 13.9732 55.8986 6.63982 56.3986C5.97315 56.3986 3.53954 55.4986 1.13982 59.8986C-1.85984 65.3986 1.63968 72.3986 4.96364 73.8986C7.0261 74.8293 10.1397 75.0653 11.6398 74.3986C15.1398 79.3986 26.464 78 32.964 75C39.464 72 41.1395 69.3986 49.1398 68.8986C55.5401 68.4986 56.1398 73.8986 54.1398 76.8986C51.1398 81.3986 41.6398 83.8986 32.964 82.3986C20.4611 80.2369 11.464 78.3986 2.96364 79.5C2.29698 81.5 1.36364 86.8 2.96364 92C4.96364 98.5 13.0923 103.899 23.6398 103.899C33.6398 103.899 47.8065 97.0653 54.1398 93.8986C58.6398 90.732 75.5544 92.4212 81.1398 83.3986C87.6398 72.8986 82.6398 60.3986 73.9637 55C68.4637 57.1667 54.8637 61.6 44.4636 62C34.0636 62.4 31.1303 56.1667 30.9636 53Z" fill="#72B3AC"/>
<path d="M28.5228 43.8986C25.3228 43.4986 24.3063 42.232 24.1396 41.3986C24.1396 41.3986 21.6578 42.6709 20.1396 43.8986C18.5255 45.2039 16.1389 47.8986 16.1389 47.8986C15.4722 49.732 15.4228 51.9986 17.0228 54.3986C18.6228 56.7986 26.6894 55.3986 30.5228 54.3986C31.8561 56.732 33.5393 61.5986 43.1393 62.3986C52.7393 63.1986 76.806 54.732 84.1393 49.8986C74.4727 49.8986 50.5228 48.8986 46.5228 48.8986C42.5228 48.8986 39.8561 45.5653 39.0228 43.8986C36.8561 44.0653 31.7228 44.2986 28.5228 43.8986Z" fill="#303440"/>
<path d="M8.01573 63.1517C9.89747 63.6131 15.8069 62.4699 15.6561 58.4913C15.4736 53.6767 6.70833 51.7239 4.10066 55.0952C1.49301 58.4665 6.17744 62.7011 8.01573 63.1517Z" fill="#303440"/>
</svg>
